<svg xmlns="http://www.w3.org/2000/svg" xmlns:xlink="http://www.w3.org/1999/xlink" width="600" zoomAndPan="magnify" viewBox="0 0 450 149.999998" height="200" preserveAspectRatio="xMidYMid meet" version="1.0"><defs><g/></defs><rect x="-45" width="540" fill="#ffffff" y="-15" height="179.999997" fill-opacity="1"/><rect x="-45" width="540" fill="#ffffff" y="-15" height="179.999997" fill-opacity="1"/><g fill="#000000" fill-opacity="1"><g transform="translate(10.857178, 92.064043)"><g><path d="M 89.640625 0 L 89.640625 -32.5625 C 89.640625 -44.296875 81.75 -49.75 71.796875 -49.75 C 60.921875 -49.75 56.6875 -44.671875 54.71875 -40.734375 C 52.28125 -45.984375 47.125 -49.75 37.828125 -49.75 C 29.09375 -49.75 24.5 -45.609375 22.53125 -41.671875 L 22.53125 -48.625 L 3.84375 -48.625 L 3.84375 0 L 23.28125 0 L 23.28125 -26.375 C 23.28125 -33.21875 28.8125 -33.890625 30.40625 -33.890625 C 34.078125 -33.890625 37.171875 -31.71875 37.171875 -26.65625 L 37.171875 0 L 56.5 0 L 56.5 -26.375 C 56.5 -30.40625 58.28125 -33.890625 63.546875 -33.890625 C 69.921875 -33.890625 70.296875 -28.90625 70.296875 -26.375 L 70.296875 0 Z M 89.640625 0 "/></g></g></g><g fill="#000000" fill-opacity="1"><g transform="translate(104.71344, 92.064043)"><g><path d="M 23.28125 -53.40625 L 23.28125 -66.265625 L 3.9375 -66.265625 L 3.9375 -53.40625 Z M 23.28125 0 L 23.28125 -48.625 L 3.9375 -48.625 L 3.9375 0 Z M 23.28125 0 "/></g></g></g><g fill="#000000" fill-opacity="1"><g transform="translate(132.119467, 92.064043)"><g><path d="M 56.125 0 L 56.125 -31.0625 C 56.125 -43.078125 50.03125 -49.84375 38.109375 -49.84375 C 31.8125 -49.84375 25.53125 -47.78125 22.15625 -42.140625 L 22.15625 -48.625 L 3.84375 -48.625 L 3.84375 0 L 23.1875 0 L 23.1875 -26.09375 C 23.1875 -28.25 23.1875 -33.890625 30.125 -33.890625 C 35.765625 -33.890625 36.796875 -30.40625 36.796875 -26.5625 L 36.796875 0 Z M 56.125 0 "/></g></g></g><g fill="#000000" fill-opacity="1"><g transform="translate(192.750619, 92.064043)"><g><path d="M 54.625 0 L 54.625 -66.265625 L 35.390625 -66.265625 L 35.390625 -45.234375 C 30.40625 -49.84375 25.25 -50.03125 23.09375 -50.03125 C 10.609375 -50.03125 1.78125 -40.546875 1.78125 -26 C 1.78125 -8.640625 10.515625 1.21875 23.65625 1.21875 C 27.875 1.21875 33.3125 0.09375 35.859375 -3.46875 L 35.859375 0 Z M 35.859375 -24.5 C 35.859375 -18.203125 34.078125 -12.765625 28.4375 -12.765625 C 22.15625 -12.765625 20.84375 -19.328125 20.84375 -24.40625 C 20.84375 -33.03125 24.125 -36.234375 28.25 -36.234375 C 32.28125 -36.234375 35.859375 -33.21875 35.859375 -24.5 Z M 35.859375 -24.5 "/></g></g></g><g fill="#000000" fill-opacity="1"><g transform="translate(251.416673, 92.064043)"><g><path d="M 3.1875 -10.890625 C 7.984375 0.5625 17.453125 1.125 21.21875 1.125 C 33.796875 1.125 37.921875 -7.140625 37.921875 -12.296875 C 37.921875 -19.234375 33.40625 -23.75 25.53125 -25.34375 L 20.84375 -26.28125 C 16.984375 -27.03125 11.453125 -28.25 11.453125 -33.515625 C 11.453125 -36.234375 12.671875 -41.015625 21.78125 -41.015625 C 26.28125 -41.015625 31.625 -39.515625 32.65625 -34.359375 L 37.921875 -35.765625 C 37.546875 -37.265625 36.515625 -40.546875 33.03125 -42.984375 C 28.90625 -45.890625 23.375 -45.890625 22.0625 -45.890625 C 18.109375 -45.890625 12.953125 -44.953125 9.859375 -42.140625 C 6.28125 -38.953125 6 -34.640625 6 -33.03125 C 6 -26.46875 10.703125 -23.375 17.640625 -21.875 L 22.90625 -20.75 C 30.3125 -19.140625 32.5625 -16.515625 32.5625 -12.671875 C 32.5625 -8.734375 29.75 -3.9375 21.125 -3.9375 C 12.765625 -3.9375 9.390625 -9.671875 8.640625 -12.765625 Z M 3.1875 -10.890625 "/></g></g></g><g fill="#000000" fill-opacity="1"><g transform="translate(294.402841, 92.064043)"><g><path d="M 16.140625 -40.078125 L 26 -40.078125 L 26 -44.765625 L 16.140625 -44.765625 L 16.140625 -63.828125 L 10.796875 -63.828125 L 10.796875 -44.765625 L 1.40625 -44.765625 L 1.40625 -40.078125 L 10.796875 -40.078125 L 10.796875 -10.515625 C 10.796875 -8.078125 10.890625 -4.78125 11.453125 -3.1875 C 12.859375 0.75 16.984375 0.84375 18.578125 0.84375 C 22.4375 0.84375 24.78125 -0.28125 26 -1.21875 L 26 -6.859375 C 24.3125 -5.625 22.0625 -4.03125 19.796875 -4.03125 C 16.515625 -4.03125 16.140625 -6.953125 16.140625 -9.484375 Z M 16.140625 -40.078125 "/></g></g></g><g fill="#000000" fill-opacity="1"><g transform="translate(321.808868, 92.064043)"><g><path d="M 46.171875 0 L 46.171875 -4.40625 L 45.234375 -4.40625 C 39.703125 -4.40625 39.515625 -6.765625 39.515625 -12.765625 L 39.515625 -32.375 C 39.515625 -43.546875 30.875 -45.890625 23.09375 -45.890625 C 12.765625 -45.890625 6.65625 -40.359375 5.53125 -31.25 L 11.640625 -30.21875 C 11.640625 -37.453125 14.546875 -41.015625 23.75 -41.015625 C 32 -41.015625 34.171875 -36.234375 34.171875 -31.90625 L 34.171875 -28.4375 L 26.65625 -26.75 C 11.828125 -23.375 4.21875 -20.1875 4.21875 -11.265625 C 4.21875 -4.875 8.828125 0.9375 18.296875 0.9375 C 28.0625 0.9375 33.125 -4.78125 34.171875 -8.171875 C 34.171875 -1.875 37.640625 0 45.046875 0 Z M 34.171875 -20.28125 C 34.171875 -16.140625 33.796875 -14.265625 32.9375 -12.390625 C 30.6875 -7.234375 24.03125 -3.9375 18.578125 -3.9375 C 12.015625 -3.9375 9.578125 -8.265625 9.578125 -11.359375 C 9.578125 -17.921875 16.140625 -18.859375 31.34375 -22.90625 L 34.171875 -23.65625 Z M 34.171875 -20.28125 "/></g></g></g><g fill="#000000" fill-opacity="1"><g transform="translate(368.737003, 92.064043)"><g><path d="M 16.140625 -40.078125 L 26 -40.078125 L 26 -44.765625 L 16.140625 -44.765625 L 16.140625 -63.828125 L 10.796875 -63.828125 L 10.796875 -44.765625 L 1.40625 -44.765625 L 1.40625 -40.078125 L 10.796875 -40.078125 L 10.796875 -10.515625 C 10.796875 -8.078125 10.890625 -4.78125 11.453125 -3.1875 C 12.859375 0.75 16.984375 0.84375 18.578125 0.84375 C 22.4375 0.84375 24.78125 -0.28125 26 -1.21875 L 26 -6.859375 C 24.3125 -5.625 22.0625 -4.03125 19.796875 -4.03125 C 16.515625 -4.03125 16.140625 -6.953125 16.140625 -9.484375 Z M 16.140625 -40.078125 "/></g></g></g><g fill="#000000" fill-opacity="1"><g transform="translate(396.143037, 92.064043)"><g><path d="M 3.1875 -10.890625 C 7.984375 0.5625 17.453125 1.125 21.21875 1.125 C 33.796875 1.125 37.921875 -7.140625 37.921875 -12.296875 C 37.921875 -19.234375 33.40625 -23.75 25.53125 -25.34375 L 20.84375 -26.28125 C 16.984375 -27.03125 11.453125 -28.25 11.453125 -33.515625 C 11.453125 -36.234375 12.671875 -41.015625 21.78125 -41.015625 C 26.28125 -41.015625 31.625 -39.515625 32.65625 -34.359375 L 37.921875 -35.765625 C 37.546875 -37.265625 36.515625 -40.546875 33.03125 -42.984375 C 28.90625 -45.890625 23.375 -45.890625 22.0625 -45.890625 C 18.109375 -45.890625 12.953125 -44.953125 9.859375 -42.140625 C 6.28125 -38.953125 6 -34.640625 6 -33.03125 C 6 -26.46875 10.703125 -23.375 17.640625 -21.875 L 22.90625 -20.75 C 30.3125 -19.140625 32.5625 -16.515625 32.5625 -12.671875 C 32.5625 -8.734375 29.75 -3.9375 21.125 -3.9375 C 12.765625 -3.9375 9.390625 -9.671875 8.640625 -12.765625 Z M 3.1875 -10.890625 "/></g></g></g><g fill="#000000" fill-opacity="1"><g transform="translate(15.479228, 136.567771)"><g><path d="M 30.625 0 L 30.625 -2.921875 L 30 -2.921875 C 26.328125 -2.921875 26.203125 -4.484375 26.203125 -8.46875 L 26.203125 -21.46875 C 26.203125 -28.890625 20.484375 -30.4375 15.3125 -30.4375 C 8.46875 -30.4375 4.421875 -26.765625 3.671875 -20.734375 L 7.71875 -20.046875 C 7.71875 -24.84375 9.65625 -27.203125 15.75 -27.203125 C 21.234375 -27.203125 22.65625 -24.03125 22.65625 -21.171875 L 22.65625 -18.859375 L 17.671875 -17.734375 C 7.84375 -15.5 2.796875 -13.390625 2.796875 -7.46875 C 2.796875 -3.234375 5.84375 0.625 12.140625 0.625 C 18.609375 0.625 21.96875 -3.171875 22.65625 -5.421875 C 22.65625 -1.25 24.96875 0 29.875 0 Z M 22.65625 -13.453125 C 22.65625 -10.703125 22.40625 -9.46875 21.84375 -8.21875 C 20.359375 -4.796875 15.9375 -2.609375 12.328125 -2.609375 C 7.96875 -2.609375 6.34375 -5.484375 6.34375 -7.53125 C 6.34375 -11.890625 10.703125 -12.515625 20.796875 -15.1875 L 22.65625 -15.6875 Z M 22.65625 -13.453125 "/></g></g></g><g fill="#000000" fill-opacity="1"><g transform="translate(58.870305, 136.567771)"><g><path d="M 2.109375 -7.21875 C 5.296875 0.375 11.578125 0.75 14.0625 0.75 C 22.40625 0.75 25.15625 -4.734375 25.15625 -8.15625 C 25.15625 -12.765625 22.15625 -15.75 16.9375 -16.8125 L 13.8125 -17.4375 C 11.265625 -17.921875 7.59375 -18.734375 7.59375 -22.21875 C 7.59375 -24.03125 8.40625 -27.203125 14.4375 -27.203125 C 17.4375 -27.203125 20.984375 -26.203125 21.65625 -22.78125 L 25.15625 -23.71875 C 24.90625 -24.71875 24.21875 -26.890625 21.90625 -28.515625 C 19.171875 -30.4375 15.5 -30.4375 14.625 -30.4375 C 12.015625 -30.4375 8.59375 -29.8125 6.53125 -27.953125 C 4.171875 -25.828125 3.984375 -22.96875 3.984375 -21.90625 C 3.984375 -17.546875 7.09375 -15.5 11.703125 -14.5 L 15.1875 -13.75 C 20.109375 -12.703125 21.59375 -10.953125 21.59375 -8.40625 C 21.59375 -5.796875 19.734375 -2.609375 14 -2.609375 C 8.46875 -2.609375 6.21875 -6.40625 5.734375 -8.46875 Z M 2.109375 -7.21875 "/></g></g></g><g fill="#000000" fill-opacity="1"><g transform="translate(99.646746, 136.567771)"><g><path d="M 2.109375 -7.21875 C 5.296875 0.375 11.578125 0.75 14.0625 0.75 C 22.40625 0.75 25.15625 -4.734375 25.15625 -8.15625 C 25.15625 -12.765625 22.15625 -15.75 16.9375 -16.8125 L 13.8125 -17.4375 C 11.265625 -17.921875 7.59375 -18.734375 7.59375 -22.21875 C 7.59375 -24.03125 8.40625 -27.203125 14.4375 -27.203125 C 17.4375 -27.203125 20.984375 -26.203125 21.65625 -22.78125 L 25.15625 -23.71875 C 24.90625 -24.71875 24.21875 -26.890625 21.90625 -28.515625 C 19.171875 -30.4375 15.5 -30.4375 14.625 -30.4375 C 12.015625 -30.4375 8.59375 -29.8125 6.53125 -27.953125 C 4.171875 -25.828125 3.984375 -22.96875 3.984375 -21.90625 C 3.984375 -17.546875 7.09375 -15.5 11.703125 -14.5 L 15.1875 -13.75 C 20.109375 -12.703125 21.59375 -10.953125 21.59375 -8.40625 C 21.59375 -5.796875 19.734375 -2.609375 14 -2.609375 C 8.46875 -2.609375 6.21875 -6.40625 5.734375 -8.46875 Z M 2.109375 -7.21875 "/></g></g></g><g fill="#000000" fill-opacity="1"><g transform="translate(140.423187, 136.567771)"><g><path d="M 6.78125 -14.8125 L 29.8125 -14.8125 L 29.8125 -15.375 C 29.8125 -23.09375 24.84375 -30.4375 16.4375 -30.4375 C 9.53125 -30.4375 2.734375 -25.28125 2.734375 -15.125 C 2.734375 -9.953125 4.859375 0.75 16.9375 0.75 C 25.328125 0.75 28.453125 -4.796875 29.8125 -7.84375 L 26.390625 -8.84375 C 23.53125 -3.171875 19.421875 -2.609375 16.75 -2.609375 C 8.65625 -2.609375 6.78125 -9.53125 6.78125 -13.9375 Z M 6.84375 -17.859375 C 7.28125 -22.03125 10.078125 -27.140625 16.375 -27.140625 C 19.609375 -27.140625 24.71875 -25.515625 25.578125 -17.859375 Z M 6.84375 -17.859375 "/></g></g></g><g fill="#000000" fill-opacity="1"><g transform="translate(185.121586, 136.567771)"><g><path d="M 2.109375 -7.21875 C 5.296875 0.375 11.578125 0.75 14.0625 0.75 C 22.40625 0.75 25.15625 -4.734375 25.15625 -8.15625 C 25.15625 -12.765625 22.15625 -15.75 16.9375 -16.8125 L 13.8125 -17.4375 C 11.265625 -17.921875 7.59375 -18.734375 7.59375 -22.21875 C 7.59375 -24.03125 8.40625 -27.203125 14.4375 -27.203125 C 17.4375 -27.203125 20.984375 -26.203125 21.65625 -22.78125 L 25.15625 -23.71875 C 24.90625 -24.71875 24.21875 -26.890625 21.90625 -28.515625 C 19.171875 -30.4375 15.5 -30.4375 14.625 -30.4375 C 12.015625 -30.4375 8.59375 -29.8125 6.53125 -27.953125 C 4.171875 -25.828125 3.984375 -22.96875 3.984375 -21.90625 C 3.984375 -17.546875 7.09375 -15.5 11.703125 -14.5 L 15.1875 -13.75 C 20.109375 -12.703125 21.59375 -10.953125 21.59375 -8.40625 C 21.59375 -5.796875 19.734375 -2.609375 14 -2.609375 C 8.46875 -2.609375 6.21875 -6.40625 5.734375 -8.46875 Z M 2.109375 -7.21875 "/></g></g></g><g fill="#000000" fill-opacity="1"><g transform="translate(225.898027, 136.567771)"><g><path d="M 2.109375 -7.21875 C 5.296875 0.375 11.578125 0.75 14.0625 0.75 C 22.40625 0.75 25.15625 -4.734375 25.15625 -8.15625 C 25.15625 -12.765625 22.15625 -15.75 16.9375 -16.8125 L 13.8125 -17.4375 C 11.265625 -17.921875 7.59375 -18.734375 7.59375 -22.21875 C 7.59375 -24.03125 8.40625 -27.203125 14.4375 -27.203125 C 17.4375 -27.203125 20.984375 -26.203125 21.65625 -22.78125 L 25.15625 -23.71875 C 24.90625 -24.71875 24.21875 -26.890625 21.90625 -28.515625 C 19.171875 -30.4375 15.5 -30.4375 14.625 -30.4375 C 12.015625 -30.4375 8.59375 -29.8125 6.53125 -27.953125 C 4.171875 -25.828125 3.984375 -22.96875 3.984375 -21.90625 C 3.984375 -17.546875 7.09375 -15.5 11.703125 -14.5 L 15.1875 -13.75 C 20.109375 -12.703125 21.59375 -10.953125 21.59375 -8.40625 C 21.59375 -5.796875 19.734375 -2.609375 14 -2.609375 C 8.46875 -2.609375 6.21875 -6.40625 5.734375 -8.46875 Z M 2.109375 -7.21875 "/></g></g></g><g fill="#000000" fill-opacity="1"><g transform="translate(266.674468, 136.567771)"><g><path d="M 43.328125 0 L 43.328125 -16.125 C 43.328125 -22.71875 43.203125 -26.578125 39.96875 -28.828125 C 38.40625 -29.9375 36.609375 -30.3125 34.609375 -30.3125 C 29.75 -30.3125 27.453125 -27.640625 26.515625 -25.890625 C 26.140625 -25.28125 25.765625 -24.53125 25.328125 -22.90625 C 25.21875 -24.40625 24.96875 -25.21875 24.71875 -25.828125 C 24.03125 -27.515625 21.90625 -30.3125 17.1875 -30.3125 C 13.265625 -30.3125 9.09375 -28.140625 8.34375 -23.53125 L 8.34375 -29.6875 L 4.671875 -29.6875 L 4.671875 0 L 8.34375 0 L 8.34375 -11.953125 C 8.34375 -17.671875 8.40625 -20.296875 9.828125 -22.96875 C 11.765625 -26.515625 14.8125 -26.953125 16.4375 -26.953125 C 18.359375 -26.953125 20.234375 -26.203125 21.234375 -24.40625 C 22.09375 -22.78125 22.15625 -20.421875 22.15625 -16.5 L 22.15625 0 L 25.765625 0 L 25.765625 -12.390625 C 25.765625 -17.5 25.828125 -19.796875 26.953125 -22.15625 C 28.328125 -25.09375 30.625 -26.953125 33.921875 -26.953125 C 34.546875 -26.953125 36.234375 -26.953125 37.59375 -25.890625 C 39.46875 -24.46875 39.65625 -22.15625 39.65625 -18.609375 L 39.65625 0 Z M 43.328125 0 "/></g></g></g><g fill="#000000" fill-opacity="1"><g transform="translate(326.936154, 136.567771)"><g><path d="M 6.78125 -14.8125 L 29.8125 -14.8125 L 29.8125 -15.375 C 29.8125 -23.09375 24.84375 -30.4375 16.4375 -30.4375 C 9.53125 -30.4375 2.734375 -25.28125 2.734375 -15.125 C 2.734375 -9.953125 4.859375 0.75 16.9375 0.75 C 25.328125 0.75 28.453125 -4.796875 29.8125 -7.84375 L 26.390625 -8.84375 C 23.53125 -3.171875 19.421875 -2.609375 16.75 -2.609375 C 8.65625 -2.609375 6.78125 -9.53125 6.78125 -13.9375 Z M 6.84375 -17.859375 C 7.28125 -22.03125 10.078125 -27.140625 16.375 -27.140625 C 19.609375 -27.140625 24.71875 -25.515625 25.578125 -17.859375 Z M 6.84375 -17.859375 "/></g></g></g><g fill="#000000" fill-opacity="1"><g transform="translate(371.634546, 136.567771)"><g><path d="M 27.765625 0 L 27.765625 -16.875 C 27.765625 -20.984375 27.703125 -23.09375 26.703125 -25.21875 C 25.765625 -27.265625 23.21875 -30.3125 17.671875 -30.3125 C 10.453125 -30.3125 8.59375 -25.21875 8.34375 -24.40625 L 8.34375 -29.6875 L 4.671875 -29.6875 L 4.671875 0 L 8.34375 0 L 8.34375 -17 C 8.34375 -22.40625 11.078125 -27.015625 17.25 -27.015625 C 19.234375 -27.015625 22.28125 -26.390625 23.40625 -23.53125 C 24.09375 -21.78125 24.09375 -19.421875 24.09375 -15.4375 L 24.09375 0 Z M 27.765625 0 "/></g></g></g><g fill="#000000" fill-opacity="1"><g transform="translate(416.332938, 136.567771)"><g><path d="M 10.703125 -26.578125 L 17.25 -26.578125 L 17.25 -29.6875 L 10.703125 -29.6875 L 10.703125 -42.328125 L 7.15625 -42.328125 L 7.15625 -29.6875 L 0.9375 -29.6875 L 0.9375 -26.578125 L 7.15625 -26.578125 L 7.15625 -6.96875 C 7.15625 -5.359375 7.21875 -3.171875 7.59375 -2.109375 C 8.53125 0.5 11.265625 0.5625 12.328125 0.5625 C 14.875 0.5625 16.4375 -0.1875 17.25 -0.8125 L 17.25 -4.546875 C 16.125 -3.734375 14.625 -2.671875 13.140625 -2.671875 C 10.953125 -2.671875 10.703125 -4.609375 10.703125 -6.28125 Z M 10.703125 -26.578125 "/></g></g></g></svg>